<svg width="35" height="35" viewBox="0 0 35 35" fill="none" xmlns="http://www.w3.org/2000/svg">
<path d="M28.1058 0.231984C27.6173 0.271955 26.9702 0.418516 27.0231 0.465149C27.0363 0.485134 27.3004 0.445163 27.6041 0.385206C28.1983 0.271955 29.5253 0.298602 29.9809 0.425178C30.2582 0.50512 30.278 0.50512 30.1988 0.425178C30.0601 0.285279 28.8255 0.165366 28.1058 0.231984Z" fill="#002D4C"/>
<path d="M28.238 0.478284C28.2578 0.524917 28.2974 0.544902 28.3172 0.511593C28.337 0.484945 28.3832 0.438313 28.4162 0.411665C28.4426 0.385018 28.4096 0.371694 28.337 0.378356C28.2578 0.385018 28.2182 0.418327 28.238 0.478284Z" fill="#002D4C"/>
<path d="M26.4553 0.62495C25.9866 0.818143 25.2207 1.29113 25.0755 1.47767C25.0292 1.53762 25.1745 1.45102 25.4056 1.29113C25.7225 1.06463 25.8347 1.01134 25.8743 1.08462C25.9139 1.14457 25.947 1.15124 25.9734 1.09794C25.9998 1.05797 25.98 1.02466 25.9338 1.018C25.8743 1.018 25.8743 1.00467 25.947 0.971365C25.9998 0.944718 26.1186 0.871438 26.2111 0.811481C26.3035 0.744863 26.4421 0.684906 26.5082 0.664921C26.7788 0.604964 26.9373 0.538346 26.9373 0.485051C26.9373 0.451742 26.9307 0.425094 26.9241 0.431756C26.9109 0.431756 26.7062 0.51836 26.4553 0.62495Z" fill="#002D4C"/>
<path d="M30.7075 0.64481C31.2621 0.877975 31.9421 1.27769 32.0147 1.41092C32.0543 1.47088 32.0874 1.49753 32.0874 1.46422C32.0874 1.43091 32.1468 1.45756 32.2194 1.52417C32.292 1.59079 32.3514 1.61744 32.3514 1.57747C32.3514 1.41092 30.9716 0.618163 30.516 0.518235C30.417 0.49825 30.5028 0.551544 30.7075 0.64481Z" fill="#002D4C"/>
<path d="M29.3142 0.584837C29.3142 0.598161 29.3604 0.63147 29.4198 0.651456C29.4727 0.671441 29.4991 0.664779 29.4793 0.624808C29.4397 0.55819 29.3142 0.531542 29.3142 0.584837Z" fill="#002D4C"/>
<path d="M29.585 1.20459C29.5784 1.31784 29.6906 1.37113 29.7501 1.28453C29.7765 1.2379 29.7699 1.22457 29.7236 1.25122C29.6906 1.27121 29.6378 1.25122 29.6246 1.21125C29.5982 1.15129 29.585 1.14463 29.585 1.20459Z" fill="#002D4C"/>
<path d="M24.5077 1.99074C23.2202 3.3431 22.7185 5.13513 23.1014 6.99379C23.1674 7.32688 23.3193 7.80653 23.4381 8.05968C23.6758 8.58597 24.3426 9.73181 24.4417 9.79176C24.5671 9.87171 24.4153 9.52529 24.2238 9.30545C24.1248 9.18554 23.9861 8.97902 23.9267 8.83912C23.8607 8.69922 23.7616 8.51269 23.7022 8.41942C23.59 8.23955 23.3589 7.65331 23.3391 7.48677C23.3325 7.43347 23.2929 7.3069 23.2533 7.20697C23.0882 6.79393 23.0156 5.90791 23.0882 5.24172C23.1608 4.57554 23.4975 3.44303 23.6164 3.46967C23.6494 3.47634 23.6758 3.4297 23.6758 3.36975C23.6692 3.19654 23.7946 3.19654 23.8475 3.36975C23.8871 3.51631 23.8871 3.50964 23.8937 3.33644C23.9003 3.23651 23.8673 3.15657 23.8277 3.15657C23.7286 3.15657 24.0191 2.65693 24.3162 2.31717C24.4549 2.15729 24.6001 2.03738 24.6331 2.06402C24.6661 2.08401 24.6992 2.06402 24.6992 2.03071C24.7058 1.99074 24.7124 1.92412 24.719 1.88415C24.719 1.84418 24.785 1.7709 24.851 1.71761C24.9236 1.67097 24.9633 1.61102 24.95 1.59103C24.9302 1.57105 24.7322 1.75092 24.5077 1.99074Z" fill="#002D4C"/>
<path d="M25.3858 1.62418C25.366 1.65749 25.3792 1.6908 25.4122 1.6908C25.4518 1.6908 25.4848 1.65749 25.4848 1.62418C25.4848 1.58421 25.4716 1.55756 25.4584 1.55756C25.4386 1.55756 25.4056 1.58421 25.3858 1.62418Z" fill="#002D4C"/>
<path d="M26.3101 1.69088C26.3299 1.72419 26.3629 1.7575 26.3827 1.7575C26.3959 1.7575 26.4091 1.72419 26.4091 1.69088C26.4091 1.65091 26.3761 1.62426 26.3365 1.62426C26.3035 1.62426 26.2903 1.65091 26.3101 1.69088Z" fill="#002D4C"/>
<path d="M32.3909 1.68432C32.3644 1.72429 32.3909 1.7576 32.4503 1.7576C32.5163 1.7576 32.5361 1.79091 32.5097 1.83754C32.4833 1.87751 32.4899 1.89084 32.5361 1.86419C32.5757 1.8442 32.6681 1.90416 32.7408 1.99743C32.82 2.09735 32.8926 2.16397 32.9124 2.14399C32.9322 2.13066 32.8266 2.00409 32.688 1.86419C32.5295 1.70431 32.4173 1.63769 32.3909 1.68432Z" fill="#002D4C"/>
<path d="M28.0269 1.75732C28.0005 1.79729 27.9543 1.80395 27.9147 1.78397C27.8684 1.75732 27.8618 1.77064 27.8882 1.81728C27.9279 1.87723 27.9609 1.87723 28.0335 1.81728C28.1259 1.744 28.1523 1.6907 28.0995 1.6907C28.0797 1.6907 28.0467 1.72401 28.0269 1.75732Z" fill="#002D4C"/>
<path d="M29.3074 1.77066C29.2744 1.89723 29.2546 2.10375 29.281 2.0771C29.3273 2.03047 29.3801 1.75733 29.3405 1.75733C29.3273 1.75733 29.314 1.764 29.3074 1.77066Z" fill="#002D4C"/>
<path d="M30.5817 1.91723C30.6279 1.97053 30.6807 1.99718 30.6939 1.99051C30.7269 1.95054 30.6279 1.82397 30.5619 1.82397C30.5289 1.82397 30.5355 1.86394 30.5817 1.91723Z" fill="#002D4C"/>
<path d="M29.552 1.9705C29.5718 2.00381 29.618 2.01047 29.651 1.99048C29.7369 1.93053 29.7236 1.91054 29.6114 1.91054C29.5586 1.91054 29.5322 1.93719 29.552 1.9705Z" fill="#002D4C"/>
<path d="M28.1785 2.07041C28.2247 2.0904 28.2842 2.08374 28.304 2.06375C28.3304 2.04377 28.2908 2.02378 28.2181 2.03044C28.1455 2.03044 28.1257 2.05043 28.1785 2.07041Z" fill="#002D4C"/>
<path d="M30.3376 2.22381C30.3178 2.26379 30.3442 2.27045 30.3971 2.25046C30.5159 2.20383 30.5357 2.1572 30.4433 2.1572C30.4037 2.1572 30.3574 2.18384 30.3376 2.22381Z" fill="#002D4C"/>
<path d="M33.1238 2.44368C33.2295 2.5636 33.3813 2.77678 33.4672 2.91667C33.553 3.04991 33.6388 3.14984 33.652 3.12985C33.6982 3.08322 33.071 2.22384 32.9918 2.22384C32.9588 2.22384 33.0182 2.32377 33.1238 2.44368Z" fill="#002D4C"/>
<path d="M28.9512 2.43045C28.9248 2.47042 28.9182 2.51039 28.938 2.53038C28.9512 2.55037 28.9842 2.51706 29.0041 2.4571C29.0503 2.34385 29.0107 2.32386 28.9512 2.43045Z" fill="#002D4C"/>
<path d="M31.5261 2.42366C31.5063 2.46363 31.5327 2.47029 31.5855 2.4503C31.7044 2.40367 31.7242 2.35704 31.6317 2.35704C31.5921 2.35704 31.5459 2.38368 31.5261 2.42366Z" fill="#002D4C"/>
<path d="M24.3558 2.47015C24.3558 2.50346 24.3426 2.57674 24.3294 2.6367C24.3162 2.70332 24.3294 2.76993 24.3558 2.78326C24.3756 2.79658 24.402 2.7233 24.402 2.61671C24.4086 2.51012 24.402 2.42352 24.3888 2.42352C24.3756 2.42352 24.3624 2.4435 24.3558 2.47015Z" fill="#002D4C"/>
<path d="M31.11 2.55682C31.1562 2.62344 31.2025 2.67673 31.2091 2.66341C31.2487 2.62344 31.1496 2.42358 31.0902 2.42358C31.0572 2.42358 31.0638 2.48354 31.11 2.55682Z" fill="#002D4C"/>
<path d="M30.9385 2.6102C30.9187 2.64351 30.9451 2.67015 30.9979 2.67015C31.0507 2.67015 31.0771 2.64351 31.0573 2.6102C31.0375 2.58355 31.0111 2.5569 30.9979 2.5569C30.9847 2.5569 30.9583 2.58355 30.9385 2.6102Z" fill="#002D4C"/>
<path d="M30.4366 2.76351C30.3639 2.89009 30.3705 2.89675 30.5026 2.82347C30.5752 2.7835 30.6214 2.72354 30.6016 2.68357C30.5422 2.59697 30.5158 2.61029 30.4366 2.76351Z" fill="#002D4C"/>
<path d="M29.4463 2.74345C29.4463 2.83672 29.6312 2.89668 29.684 2.81674C29.7038 2.77676 29.7038 2.73013 29.684 2.71015C29.6642 2.6835 29.6444 2.70348 29.6444 2.75678C29.6444 2.8234 29.6246 2.8234 29.5453 2.75678C29.4859 2.71015 29.4463 2.70348 29.4463 2.74345Z" fill="#002D4C"/>
<path d="M31.3345 2.94317C31.3147 2.97648 31.3411 3.00313 31.3939 3.00313C31.4467 3.00313 31.4731 2.97648 31.4533 2.94317C31.4335 2.91652 31.4071 2.88988 31.3939 2.88988C31.3807 2.88988 31.3543 2.91652 31.3345 2.94317Z" fill="#002D4C"/>
<path d="M32.0079 3.20303C32.0541 3.22302 32.1135 3.21636 32.1333 3.19637C32.1597 3.17639 32.1201 3.1564 32.0475 3.16306C31.9749 3.16306 31.9551 3.18305 32.0079 3.20303Z" fill="#002D4C"/>
<path d="M27.9277 3.32296C27.9277 3.38291 27.9673 3.4029 28.0268 3.38291C28.0796 3.35627 28.1258 3.33628 28.1258 3.32296C28.1258 3.30963 28.0796 3.28965 28.0268 3.263C27.9673 3.24301 27.9277 3.263 27.9277 3.32296Z" fill="#002D4C"/>
<path d="M33.6716 3.24966C33.6716 3.26965 33.7971 3.60274 33.9291 3.92251C34.1074 4.34887 34.1338 4.46212 34.1668 4.79521C34.1932 5.0417 34.18 5.14829 34.1338 5.12164C34.1008 5.10166 34.0678 5.11498 34.0678 5.14829C34.0678 5.18826 34.1008 5.22157 34.1338 5.22157C34.1734 5.22157 34.1998 5.26154 34.1998 5.31484C34.1998 5.36813 34.2328 5.43475 34.2724 5.4614C34.4441 5.56799 34.1734 4.22229 33.8961 3.56943C33.7707 3.28297 33.6716 3.13641 33.6716 3.24966Z" fill="#002D4C"/>
<path d="M25.3064 3.3897C25.3064 3.44299 25.3328 3.46964 25.3658 3.44965C25.3988 3.42967 25.4054 3.38303 25.3856 3.34972C25.3262 3.26312 25.3064 3.27644 25.3064 3.3897Z" fill="#002D4C"/>
<path d="M28.2579 3.35649C28.3371 3.40978 28.3305 3.42311 28.2117 3.42311C28.1258 3.42311 28.0598 3.45641 28.0598 3.48972C28.0598 3.5297 28.0202 3.55634 27.9806 3.54968C27.8485 3.53636 27.5977 3.62962 27.5977 3.69624C27.5977 3.72289 27.7231 3.7029 27.8816 3.64295C28.1589 3.54302 29.169 3.48306 29.2218 3.563C29.235 3.58965 29.3473 3.62296 29.4661 3.64961C30.0075 3.74954 30.7073 4.44237 30.9648 5.14186C31.1101 5.53491 31.1431 6.22774 31.0242 6.6541C30.8196 7.3869 30.0735 8.10638 29.2878 8.31956C28.4626 8.54607 27.6505 8.34621 26.977 7.74664C26.812 7.60008 26.6733 7.50016 26.6733 7.53346C26.6733 7.69335 27.3798 8.19299 27.875 8.38618C28.3767 8.57271 29.2284 8.50609 29.7368 8.23296C29.9547 8.11971 30.1527 8.03977 30.1858 8.05975C30.2188 8.07974 30.232 8.06641 30.2254 8.0331C30.2122 7.99979 30.298 7.8932 30.4168 7.79328C30.8196 7.45352 31.3214 6.29436 31.2223 5.93462C31.1959 5.82803 31.1959 5.76808 31.2355 5.79472C31.2685 5.81471 31.2949 5.7281 31.2949 5.60819C31.2949 5.46829 31.2751 5.42166 31.2421 5.47495C31.2025 5.52825 31.1563 5.46829 31.1035 5.2751C31.0573 5.11521 30.9648 4.88871 30.8922 4.7688C30.8196 4.64222 30.7866 4.50899 30.8064 4.46902C30.8328 4.42238 30.8328 4.40906 30.7998 4.43571C30.7734 4.46235 30.6083 4.34244 30.4432 4.16923C30.2782 3.99602 29.9943 3.78951 29.8226 3.70957C29.6444 3.62296 29.5189 3.53636 29.5321 3.50971C29.5519 3.4764 29.3935 3.44975 29.1888 3.43643C28.6738 3.41644 28.4626 3.38313 28.4097 3.3365C28.3899 3.30985 28.3239 3.28987 28.2645 3.28987C28.1721 3.28987 28.1721 3.30319 28.2579 3.35649Z" fill="#002D4C"/>
<path d="M31.0308 3.5427C31.0308 3.57601 31.077 3.60265 31.1298 3.60265C31.1826 3.60265 31.2288 3.57601 31.2288 3.5427C31.2288 3.51605 31.1826 3.4894 31.1298 3.4894C31.077 3.4894 31.0308 3.51605 31.0308 3.5427Z" fill="#002D4C"/>
<path d="M31.44 3.56952C31.3872 3.63614 31.407 3.65613 31.5258 3.65613C31.6447 3.65613 31.6645 3.63614 31.6117 3.56952C31.5721 3.52955 31.5324 3.48958 31.5258 3.48958C31.5192 3.48958 31.4796 3.52955 31.44 3.56952Z" fill="#002D4C"/>
<path d="M27.3005 3.84918C27.109 4.0024 27.0628 4.02238 26.9506 4.02238C26.9175 4.02238 26.8581 4.10233 26.8119 4.20225L26.7261 4.38879L26.8845 4.24889C26.9638 4.17561 27.1486 4.04237 27.2873 3.96243C27.4193 3.87582 27.5316 3.78256 27.5316 3.74925C27.5316 3.66931 27.525 3.66931 27.3005 3.84918Z" fill="#002D4C"/>
<path d="M31.0639 3.7562C31.0441 3.78951 31.0705 3.82282 31.1299 3.82282C31.1959 3.82282 31.2157 3.85613 31.1893 3.90276C31.1629 3.9494 31.1695 3.95606 31.2157 3.92941C31.295 3.88278 31.2487 3.68959 31.1629 3.68959C31.1299 3.68959 31.0837 3.71623 31.0639 3.7562Z" fill="#002D4C"/>
<path d="M33.606 3.78257C33.606 3.79589 33.6522 3.8292 33.7116 3.84919C33.7644 3.86917 33.7908 3.86251 33.771 3.82254C33.7314 3.75592 33.606 3.72928 33.606 3.78257Z" fill="#002D4C"/>
<path d="M25.0889 3.9161C25.0889 3.96939 25.1153 4.02935 25.1483 4.04934C25.1813 4.07598 25.1945 4.02935 25.1747 3.95607C25.1351 3.80285 25.0889 3.78286 25.0889 3.9161Z" fill="#002D4C"/>
<path d="M31.0308 4.14897C31.0308 4.22225 31.0506 4.29553 31.0836 4.30885C31.11 4.32883 31.1298 4.26888 31.1298 4.18227C31.1298 4.09567 31.11 4.02239 31.0836 4.02239C31.0506 4.02239 31.0308 4.08235 31.0308 4.14897Z" fill="#002D4C"/>
<path d="M30.8328 4.16255C30.8328 4.19586 30.8658 4.20918 30.8988 4.1892C30.9384 4.16921 30.9648 4.1359 30.9648 4.11592C30.9648 4.1026 30.9384 4.08927 30.8988 4.08927C30.8658 4.08927 30.8328 4.12258 30.8328 4.16255Z" fill="#002D4C"/>
<path d="M24.3625 4.29569C24.3625 4.329 24.3956 4.34232 24.4286 4.32234C24.4682 4.30235 24.4946 4.26904 24.4946 4.24906C24.4946 4.23573 24.4682 4.22241 24.4286 4.22241C24.3956 4.22241 24.3625 4.25572 24.3625 4.29569Z" fill="#002D4C"/>
<path d="M32.0872 4.28881C32.0872 4.32879 32.1334 4.35543 32.1862 4.35543C32.239 4.35543 32.2852 4.34211 32.2852 4.32879C32.2852 4.31546 32.239 4.28881 32.1862 4.26217C32.1334 4.24218 32.0872 4.2555 32.0872 4.28881Z" fill="#002D4C"/>
<path d="M26.0791 4.31558C26.0791 4.3289 26.1385 4.35555 26.2111 4.37554C26.2838 4.39552 26.3432 4.3822 26.3432 4.34889C26.3432 4.31558 26.2838 4.28893 26.2111 4.28893C26.1385 4.28893 26.0791 4.30226 26.0791 4.31558Z" fill="#002D4C"/>
<path d="M26.5808 4.52878C26.561 4.58207 26.5082 4.60872 26.4686 4.58207C26.4157 4.55543 26.4091 4.56209 26.4355 4.60872C26.462 4.64869 26.4157 4.80858 26.3431 4.9618C26.0988 5.43479 26.0856 6.55398 26.3101 6.86043C26.3893 6.96701 26.3893 6.93371 26.3101 6.66057C26.1186 6.02769 26.2507 5.12835 26.6006 4.62871C26.6798 4.51546 26.7194 4.42219 26.6864 4.42219C26.6468 4.42219 26.6006 4.46882 26.5808 4.52878Z" fill="#002D4C"/>
<path d="M24.9434 4.53549C24.9896 4.55547 25.0491 4.54881 25.0689 4.52883C25.0953 4.50884 25.0557 4.48886 24.983 4.49552C24.9104 4.49552 24.8906 4.5155 24.9434 4.53549Z" fill="#002D4C"/>
<path d="M25.7227 4.65546C25.7029 4.70876 25.7161 4.75539 25.7491 4.75539C25.7887 4.75539 25.8151 4.70876 25.8151 4.65546C25.8151 4.60217 25.8019 4.55553 25.7887 4.55553C25.7755 4.55553 25.7491 4.60217 25.7227 4.65546Z" fill="#002D4C"/>
<path d="M31.6515 4.7419C31.6779 4.78853 31.6647 4.8818 31.6185 4.94175C31.5392 5.04168 31.5458 5.04168 31.6581 4.94175C31.7637 4.84183 31.7703 4.80852 31.6977 4.7419C31.6251 4.66862 31.6119 4.67528 31.6515 4.7419Z" fill="#002D4C"/>
<path d="M32.4172 4.76188C32.4172 4.79519 32.3908 4.80852 32.3512 4.78853C32.3182 4.76855 32.2852 4.78187 32.2852 4.81518C32.2852 4.92177 32.3908 4.90178 32.4832 4.78853C32.5426 4.72191 32.5426 4.6886 32.4898 4.6886C32.4502 4.6886 32.4172 4.72191 32.4172 4.76188Z" fill="#002D4C"/>
<path d="M23.8411 4.99513C23.8411 5.06841 23.8609 5.0884 23.8808 5.0351C23.9006 4.98847 23.894 4.92851 23.8742 4.90853C23.8543 4.88188 23.8345 4.92185 23.8411 4.99513Z" fill="#002D4C"/>
<path d="M25.894 5.09489C25.8148 5.15484 25.7488 5.22812 25.7488 5.25477C25.7488 5.28142 25.7884 5.26809 25.8346 5.22812C25.8874 5.18815 25.9468 5.18149 25.9733 5.20814C25.9997 5.23479 26.0195 5.22146 26.0129 5.18815C25.9799 5.04159 26.0195 5.00828 26.1119 5.08823C26.1911 5.15484 26.2109 5.15484 26.2109 5.0749C26.2109 4.94166 26.0657 4.95499 25.894 5.09489Z" fill="#002D4C"/>
<path d="M0 5.07499C0 5.1416 0.627217 5.86774 3.86234 9.5251C5.73739 11.6502 8.9593 15.3076 9.36865 15.7806C9.5271 15.9604 10.2864 16.8331 11.0522 17.7058C14.2015 21.3032 14.4524 21.623 14.7033 22.3158C14.9476 23.0087 14.8684 23.7814 14.4788 24.5675C14.3864 24.7541 13.1055 26.7326 11.6332 28.971C8.51035 33.7143 7.72468 34.9201 7.72468 34.9667C7.72468 34.9867 8.99892 35 10.5505 35H13.3762L13.6601 33.9141C15.0664 28.6513 16.783 25.4069 19.3975 23.0486C20.1304 22.3891 20.5925 22.0294 22.1837 20.8436C23.9201 19.5578 24.4021 19.1648 25.0557 18.4986C26.1913 17.3328 26.8119 16.0271 27.0298 14.3349L27.1156 13.6621L26.3101 12.5163C25.8678 11.8901 25.4914 11.3305 25.4716 11.2838C25.4584 11.2372 25.3198 11.3704 25.1547 11.5903C24.818 12.0433 23.9135 13.1891 23.0288 14.275C22.1177 15.4075 21.5961 15.7006 20.9028 15.4608C20.3747 15.2809 20.1964 15.0877 17.7866 12.2498C17.3508 11.7368 16.6378 10.8974 16.2086 10.3911C15.7729 9.88484 15.3107 9.33857 15.1853 9.19201C14.2015 8.01286 13.0989 6.8004 12.7094 6.47397C11.8049 5.7012 10.6429 5.20156 9.46768 5.08831C8.67541 5.00837 0 5.00171 0 5.07499ZM9.77139 8.98549C10.2534 9.53176 10.6891 10.0314 10.7419 10.0914C10.8145 10.178 10.7815 10.2379 10.4778 10.4977L10.1279 10.8042L9.33564 9.89816C8.90649 9.39852 8.3585 8.77897 8.12742 8.51916L7.70487 8.05283L8.09441 8.01286C8.87348 7.93292 8.79425 7.88628 9.77139 8.98549ZM13.8054 13.5089C14.7825 14.5881 14.9608 14.8079 14.9146 14.8346C14.9014 14.8479 14.7363 14.9811 14.5514 15.1277L14.2213 15.4075L13.0989 14.1684C12.4849 13.4889 11.9832 12.916 11.9898 12.8893C11.9964 12.8227 12.7028 12.4097 12.782 12.4297C12.8282 12.443 13.2838 12.9226 13.8054 13.5089ZM17.6479 17.7658L18.4336 18.6119L18.1167 18.905C17.9384 19.0715 17.7734 19.2048 17.7536 19.2114C17.7337 19.2114 17.3376 18.8117 16.882 18.3187L16.0436 17.426L16.3869 17.1529C16.5717 16.9997 16.7566 16.8864 16.7962 16.8998C16.8292 16.9131 17.2122 17.2995 17.6479 17.7658Z" fill="#002D4C"/>
<path d="M32.6814 5.08818C32.6814 5.12149 32.7144 5.1548 32.754 5.1548C32.787 5.1548 32.8002 5.12149 32.7804 5.08818C32.7606 5.04821 32.7276 5.02156 32.7078 5.02156C32.6946 5.02156 32.6814 5.04821 32.6814 5.08818Z" fill="#002D4C"/>
<path d="M31.4072 5.17482C31.3874 5.22811 31.4138 5.26808 31.4666 5.26808C31.5723 5.26808 31.5921 5.18148 31.4996 5.12818C31.4666 5.1082 31.427 5.12818 31.4072 5.17482Z" fill="#002D4C"/>
<path d="M23.7748 5.37468C23.689 5.51458 23.6956 5.51458 23.8078 5.40799C23.8739 5.34137 23.9135 5.27475 23.8937 5.26143C23.8739 5.24144 23.821 5.29474 23.7748 5.37468Z" fill="#002D4C"/>
<path d="M26.0855 5.32811C26.0855 5.40139 26.1053 5.42137 26.1251 5.36808C26.1449 5.32144 26.1383 5.26149 26.1185 5.2415C26.0987 5.21485 26.0789 5.25483 26.0855 5.32811Z" fill="#002D4C"/>
<path d="M24.9303 5.50792C24.9501 5.57454 24.9897 5.60785 25.0095 5.58786C25.0293 5.56787 25.0095 5.51458 24.9633 5.46795C24.8973 5.40799 24.8907 5.41465 24.9303 5.50792Z" fill="#002D4C"/>
<path d="M25.3066 5.54802C25.3132 5.6213 25.3264 5.66793 25.3462 5.65461C25.3594 5.63462 25.4386 5.67459 25.5113 5.73455C25.6433 5.85446 25.6433 5.8478 25.5509 5.72123C25.3462 5.44809 25.2934 5.40812 25.3066 5.54802Z" fill="#002D4C"/>
<path d="M32.2586 5.52797C32.2256 5.62123 32.2322 5.62789 32.3181 5.55461C32.4303 5.46135 32.4435 5.42138 32.3577 5.42138C32.3247 5.42138 32.2784 5.46801 32.2586 5.52797Z" fill="#002D4C"/>
<path d="M25.1285 5.54138C25.1153 5.56803 25.1219 5.63465 25.1615 5.68794C25.2077 5.76789 25.2209 5.75456 25.2209 5.63465C25.2209 5.48143 25.1879 5.44812 25.1285 5.54138Z" fill="#002D4C"/>
<path d="M34.2725 5.66136C34.2725 5.73464 34.2923 5.75462 34.3121 5.70133C34.332 5.6547 34.3254 5.59474 34.3055 5.57475C34.2857 5.54811 34.2659 5.58808 34.2725 5.66136Z" fill="#002D4C"/>
<path d="M23.5371 5.74781C23.5173 5.78778 23.5701 5.84774 23.6494 5.88771C23.788 5.95432 23.788 5.95432 23.689 5.86772C23.623 5.81443 23.59 5.75447 23.6164 5.73448C23.6362 5.70784 23.6428 5.68785 23.6164 5.68785C23.5966 5.68785 23.5635 5.7145 23.5371 5.74781Z" fill="#002D4C"/>
<path d="M24.4944 5.82111C24.4944 5.85442 24.5274 5.88773 24.567 5.88773C24.6 5.88773 24.6132 5.85442 24.5934 5.82111C24.5736 5.78114 24.5406 5.75449 24.5208 5.75449C24.5076 5.75449 24.4944 5.78114 24.4944 5.82111Z" fill="#002D4C"/>
<path d="M34.2659 6.16072C34.2659 6.19403 34.2394 6.21401 34.213 6.19403C34.18 6.17404 34.1668 6.30728 34.1866 6.48715C34.2064 6.69367 34.1734 6.94015 34.1074 7.16C34.0414 7.34653 34.0084 7.51307 34.0282 7.53306C34.081 7.58635 34.2526 6.92017 34.3055 6.48715C34.3319 6.26731 34.3319 6.08744 34.3055 6.08744C34.2857 6.08744 34.2659 6.12075 34.2659 6.16072Z" fill="#002D4C"/>
<path d="M31.4932 6.21411C31.4932 6.24742 31.5394 6.29406 31.5988 6.31404C31.6912 6.34735 31.6978 6.34069 31.6252 6.25409C31.5328 6.14083 31.4932 6.12751 31.4932 6.21411Z" fill="#002D4C"/>
<path d="M23.5042 6.2876C23.4514 6.32091 23.425 6.36754 23.4448 6.38752C23.4712 6.40751 23.524 6.38086 23.5703 6.32091C23.6627 6.20765 23.6429 6.19433 23.5042 6.2876Z" fill="#002D4C"/>
<path d="M24.5472 6.33405C24.5934 6.35404 24.6528 6.34738 24.6726 6.32739C24.699 6.30741 24.6594 6.28742 24.5868 6.29408C24.5142 6.29408 24.4944 6.31407 24.5472 6.33405Z" fill="#002D4C"/>
<path d="M25.0557 6.61388C25.0359 6.65385 25.0887 6.7138 25.1679 6.75377C25.3066 6.82039 25.3066 6.82039 25.2075 6.73379C25.1415 6.68049 25.1085 6.62054 25.1349 6.60055C25.1547 6.5739 25.1613 6.55392 25.1349 6.55392C25.1151 6.55392 25.0821 6.58057 25.0557 6.61388Z" fill="#002D4C"/>
<path d="M24.8245 6.98029C24.8245 6.99361 24.8773 7.04691 24.9433 7.09354C25.0423 7.18015 25.0489 7.17348 24.9631 7.06689C24.8773 6.9603 24.8245 6.927 24.8245 6.98029Z" fill="#002D4C"/>
<path d="M23.3718 7.08022C23.3718 7.1202 23.3982 7.16683 23.4378 7.18681C23.4775 7.2068 23.4841 7.18015 23.4643 7.12686C23.418 7.00694 23.3718 6.98696 23.3718 7.08022Z" fill="#002D4C"/>
<path d="M26.4092 7.0603C26.4092 7.10693 26.4686 7.20686 26.5478 7.29346C26.6535 7.42004 26.6667 7.4267 26.6139 7.32011C26.5016 7.09361 26.4092 6.98035 26.4092 7.0603Z" fill="#002D4C"/>
<path d="M23.7683 7.18014C23.7683 7.19347 23.8145 7.22678 23.8739 7.24676C23.9268 7.26675 23.9532 7.26009 23.9334 7.22011C23.8938 7.1535 23.7683 7.12685 23.7683 7.18014Z" fill="#002D4C"/>
<path d="M25.4516 7.21362C25.4714 7.25359 25.5242 7.26691 25.5638 7.24693C25.6035 7.22028 25.6629 7.24693 25.6959 7.29356C25.7487 7.3735 25.7553 7.36684 25.7289 7.2869C25.7157 7.2336 25.6365 7.17365 25.5572 7.16699C25.4582 7.15366 25.4186 7.16699 25.4516 7.21362Z" fill="#002D4C"/>
<path d="M24.9369 7.29346C24.9831 7.34009 25.0359 7.36008 25.0557 7.34009C25.0756 7.3201 25.0425 7.28013 24.9765 7.26015C24.8841 7.22018 24.8775 7.22684 24.9369 7.29346Z" fill="#002D4C"/>
<path d="M25.2011 7.4933C25.2473 7.53993 25.3001 7.55991 25.3199 7.53993C25.3397 7.51994 25.3067 7.47997 25.2407 7.45999C25.1482 7.42002 25.1416 7.42668 25.2011 7.4933Z" fill="#002D4C"/>
<path d="M24.8575 7.62659C24.8311 7.66656 24.8245 7.70653 24.8443 7.72652C24.8575 7.7465 24.8905 7.71319 24.9103 7.65324C24.9565 7.53999 24.9169 7.52 24.8575 7.62659Z" fill="#002D4C"/>
<path d="M24.2634 7.6865C24.2436 7.72647 24.27 7.73313 24.3228 7.71314C24.4417 7.66651 24.4615 7.61988 24.369 7.61988C24.3294 7.61988 24.2832 7.64653 24.2634 7.6865Z" fill="#002D4C"/>
<path d="M33.8368 7.8463C33.7774 7.97287 33.685 8.11277 33.6387 8.15274C33.5859 8.19271 33.5661 8.27265 33.5859 8.32595C33.6057 8.37924 33.5859 8.46585 33.5397 8.51914C33.4935 8.5791 33.4869 8.61907 33.5265 8.61907C33.5925 8.61907 33.784 8.22602 33.751 8.13276C33.7444 8.10611 33.7642 8.08612 33.7972 8.08612C33.8698 8.08612 34.0349 7.69307 33.9821 7.64644C33.9623 7.62646 33.8962 7.71306 33.8368 7.8463Z" fill="#002D4C"/>
<path d="M23.4712 7.75309C23.491 7.7864 23.524 7.81971 23.5438 7.81971C23.557 7.81971 23.5703 7.7864 23.5703 7.75309C23.5703 7.71312 23.5372 7.68647 23.4976 7.68647C23.4646 7.68647 23.4514 7.71312 23.4712 7.75309Z" fill="#002D4C"/>
<path d="M32.3379 7.73322C32.3842 7.7532 32.4436 7.74654 32.4634 7.72656C32.4898 7.70657 32.4502 7.68658 32.3776 7.69325C32.3049 7.69325 32.2851 7.71323 32.3379 7.73322Z" fill="#002D4C"/>
<path d="M30.5357 7.89286C30.5093 7.93283 30.5027 7.9728 30.5225 7.99279C30.5357 8.01277 30.5687 7.97946 30.5885 7.91951C30.6347 7.80626 30.5951 7.78627 30.5357 7.89286Z" fill="#002D4C"/>
<path d="M32.6019 7.86635C32.6481 7.88634 32.7075 7.87968 32.7273 7.85969C32.7537 7.83971 32.7141 7.81972 32.6415 7.82638C32.5689 7.82638 32.549 7.84637 32.6019 7.86635Z" fill="#002D4C"/>
<path d="M25.4122 7.99967C25.3263 8.10625 25.3329 8.11292 25.4386 8.02631C25.498 7.97968 25.5508 7.92639 25.5508 7.91306C25.5508 7.85977 25.498 7.89308 25.4122 7.99967Z" fill="#002D4C"/>
<path d="M26.2442 8.01964C26.2244 8.05294 26.2376 8.08625 26.2706 8.08625C26.3102 8.08625 26.3432 8.05294 26.3432 8.01964C26.3432 7.97966 26.33 7.95302 26.3168 7.95302C26.297 7.95302 26.264 7.97966 26.2442 8.01964Z" fill="#002D4C"/>
<path d="M31.394 8.01975C31.3742 8.05972 31.4006 8.06638 31.4534 8.0464C31.5723 7.99976 31.5921 7.95313 31.4997 7.95313C31.4601 7.95313 31.4138 7.97978 31.394 8.01975Z" fill="#002D4C"/>
<path d="M31.6909 8.05293C31.6183 8.13953 31.6249 8.14619 31.7173 8.11288C31.7767 8.0929 31.823 8.04627 31.823 8.01296C31.823 7.92635 31.7833 7.93968 31.6909 8.05293Z" fill="#002D4C"/>
<path d="M25.8612 8.06625C25.8018 8.11955 25.9405 8.28609 26.0395 8.28609C26.0791 8.28609 26.0593 8.25279 25.9933 8.21281C25.9339 8.17284 25.8942 8.11955 25.914 8.07958C25.9603 8.01296 25.9273 7.99964 25.8612 8.06625Z" fill="#002D4C"/>
<path d="M24.2237 8.27928C24.1247 8.37921 24.0851 8.46582 24.1313 8.46582C24.1775 8.46582 24.2633 8.37921 24.3227 8.27262C24.4614 8.03946 24.4416 8.03946 24.2237 8.27928Z" fill="#002D4C"/>
<path d="M30.6741 8.16611C30.6939 8.19942 30.7401 8.20608 30.7731 8.1861C30.8589 8.12614 30.8457 8.10615 30.7335 8.10615C30.6807 8.10615 30.6542 8.1328 30.6741 8.16611Z" fill="#002D4C"/>
<path d="M32.7408 8.19951C32.6549 8.3061 32.6615 8.31276 32.7672 8.22616C32.8266 8.17952 32.8794 8.12623 32.8794 8.1129C32.8794 8.05961 32.8266 8.09292 32.7408 8.19951Z" fill="#002D4C"/>
<path d="M24.9566 8.28591C24.8972 8.32588 24.8906 8.35253 24.9368 8.35253C24.9764 8.35253 25.0359 8.31922 25.0557 8.28591C25.1085 8.20597 25.0821 8.20597 24.9566 8.28591Z" fill="#002D4C"/>
<path d="M24.6199 8.46578C24.5341 8.57237 24.5407 8.57903 24.6463 8.49243C24.7058 8.4458 24.7586 8.3925 24.7586 8.37918C24.7586 8.32588 24.7058 8.35919 24.6199 8.46578Z" fill="#002D4C"/>
<path d="M32.6482 8.42592C32.6218 8.46589 32.6218 8.51252 32.6416 8.53251C32.6614 8.55915 32.6812 8.53917 32.6812 8.49253C32.6812 8.4459 32.7142 8.43258 32.7472 8.45256C32.7868 8.47921 32.7934 8.52584 32.7736 8.56581C32.7472 8.61245 32.7604 8.61911 32.8066 8.59246C32.866 8.55249 32.866 8.51918 32.8066 8.4459C32.7142 8.33265 32.701 8.33265 32.6482 8.42592Z" fill="#002D4C"/>
<path d="M25.1614 8.49919C25.2208 8.54582 25.2604 8.63909 25.2472 8.70571C25.2406 8.76566 25.2604 8.80563 25.2934 8.77899C25.3264 8.759 25.3396 8.71237 25.3198 8.67906C25.2934 8.64575 25.3132 8.6191 25.3528 8.6191C25.3924 8.6191 25.4519 8.68572 25.4849 8.76566C25.5245 8.87891 25.5443 8.88558 25.5443 8.80563C25.5509 8.74568 25.5179 8.6724 25.4849 8.65241C25.4453 8.62576 25.4387 8.57913 25.4585 8.53916C25.4849 8.49253 25.4717 8.48587 25.4321 8.51251C25.3924 8.53916 25.2868 8.52584 25.2076 8.48587C25.0755 8.42591 25.0689 8.42591 25.1614 8.49919Z" fill="#002D4C"/>
<path d="M24.8708 8.52587C24.8444 8.55252 24.8576 8.61247 24.8972 8.66577C24.9764 8.75237 24.917 8.78568 24.6925 8.75904C24.6397 8.75237 24.6727 8.79901 24.7783 8.87229C24.8774 8.9389 24.9368 9.01885 24.9104 9.05216C24.8774 9.0788 24.8972 9.08547 24.95 9.05216C25.0292 9.00552 25.0226 8.98554 24.9302 8.91892C24.8378 8.8523 24.8378 8.82565 24.9104 8.79901C24.9632 8.77902 25.049 8.79901 25.0952 8.83898C25.1415 8.88561 25.1349 8.85896 25.082 8.78568C25.0226 8.7124 24.9632 8.61247 24.95 8.56584C24.9302 8.51921 24.8972 8.49922 24.8708 8.52587Z" fill="#002D4C"/>
<path d="M25.8152 8.57925C25.8152 8.64587 26 8.66585 26.0859 8.61256C26.1519 8.57259 26.1321 8.5526 26 8.5526C25.8944 8.5526 25.8152 8.56592 25.8152 8.57925Z" fill="#002D4C"/>
<path d="M27.7032 8.73241C27.6636 8.82568 27.6702 8.83234 27.7362 8.77238C27.7825 8.72575 27.8023 8.67245 27.7825 8.65247C27.7626 8.63248 27.723 8.66579 27.7032 8.73241Z" fill="#002D4C"/>
<path d="M33.302 8.86543C33.236 8.97202 33.1106 9.16521 33.0181 9.30511C32.9257 9.44501 32.8003 9.6382 32.7408 9.73813C32.6814 9.83806 32.5956 9.91134 32.5494 9.89801C32.5098 9.89135 32.4965 9.918 32.5164 9.95797C32.5428 9.99794 32.5031 10.1179 32.4239 10.2244C32.3447 10.331 32.3051 10.4176 32.3381 10.4176C32.3975 10.4176 33.1766 9.26514 33.368 8.89874C33.5001 8.63893 33.4539 8.61894 33.302 8.86543Z" fill="#002D4C"/>
<path d="M25.7488 9.11214C25.7488 9.12546 25.795 9.17209 25.8478 9.21873C25.9336 9.29201 25.9402 9.28535 25.9072 9.19208C25.8742 9.09881 25.7488 9.03886 25.7488 9.11214Z" fill="#002D4C"/>
<path d="M24.805 9.25858C24.8446 9.37183 24.838 9.37849 24.7191 9.28523C24.6069 9.19196 24.6003 9.19196 24.6795 9.29855C24.7323 9.35851 24.7455 9.44511 24.7191 9.49174C24.6927 9.53838 24.7059 9.55836 24.7521 9.54504C24.7983 9.52505 24.8314 9.49174 24.8248 9.45844C24.8182 9.42513 24.8446 9.37849 24.8908 9.35185C24.9436 9.31854 24.9304 9.27857 24.8578 9.21861C24.7719 9.14533 24.7653 9.15199 24.805 9.25858Z" fill="#002D4C"/>
<path d="M25.1548 9.24548C25.201 9.29212 25.2472 9.28546 25.2934 9.23882C25.3529 9.17887 25.3397 9.15888 25.234 9.1722C25.1416 9.17887 25.1152 9.20551 25.1548 9.24548Z" fill="#002D4C"/>
<path d="M31.2025 9.26523C31.1629 9.35849 31.1695 9.36515 31.2355 9.3052C31.2817 9.25856 31.3015 9.20527 31.2817 9.18528C31.2619 9.1653 31.2223 9.19861 31.2025 9.26523Z" fill="#002D4C"/>
<path d="M32.6946 9.23212C32.5955 9.33204 32.5889 9.51191 32.6814 9.45196C32.721 9.42531 32.7342 9.38534 32.7144 9.35203C32.6946 9.31872 32.7342 9.26542 32.7936 9.22545C32.8596 9.18548 32.8794 9.15217 32.8464 9.15217C32.8068 9.15217 32.7408 9.18548 32.6946 9.23212Z" fill="#002D4C"/>
<path d="M27.7361 9.30532C27.6833 9.37194 27.6899 9.39859 27.7625 9.39859C27.8153 9.39859 27.8417 9.37194 27.8219 9.34529C27.8087 9.31865 27.8351 9.27867 27.8747 9.26535C27.9275 9.2387 27.9341 9.22538 27.8879 9.22538C27.8483 9.21872 27.7757 9.25869 27.7361 9.30532Z" fill="#002D4C"/>
<path d="M25.4188 9.36545C25.498 9.46538 25.5046 9.57197 25.4254 9.52533C25.3924 9.50535 25.3461 9.53199 25.3263 9.59195C25.2603 9.7585 25.2801 9.76516 25.432 9.6186C25.5706 9.49202 25.5706 9.4787 25.465 9.38543C25.4056 9.33214 25.3857 9.31882 25.4188 9.36545Z" fill="#002D4C"/>
<path d="M29.4726 9.34541C29.499 9.37872 29.4792 9.42535 29.4462 9.43868C29.4066 9.45866 29.4132 9.46532 29.4594 9.45866C29.5584 9.43868 29.6112 9.28545 29.5122 9.28545C29.4726 9.28545 29.4528 9.3121 29.4726 9.34541Z" fill="#002D4C"/>
<path d="M25.7488 9.38518C25.7488 9.43181 25.9468 9.47178 25.9733 9.43181C25.9931 9.40516 25.9468 9.37185 25.8742 9.37185C25.8082 9.36519 25.7488 9.37185 25.7488 9.38518Z" fill="#002D4C"/>
<path d="M25.0294 9.59175C25.0294 9.66503 25.0492 9.68501 25.069 9.63172C25.0888 9.58508 25.0822 9.52513 25.0624 9.50514C25.0426 9.47849 25.0228 9.51847 25.0294 9.59175Z" fill="#002D4C"/>
<path d="M26.6733 9.54502C26.6733 9.58499 26.6997 9.63162 26.7394 9.65161C26.779 9.6716 26.7856 9.64495 26.7658 9.59165C26.7196 9.47174 26.6733 9.45175 26.6733 9.54502Z" fill="#002D4C"/>
<path d="M32.5823 9.61836C32.5625 9.65167 32.5757 9.68498 32.6087 9.68498C32.6483 9.68498 32.6813 9.65167 32.6813 9.61836C32.6813 9.57839 32.6681 9.55175 32.6549 9.55175C32.6351 9.55175 32.6021 9.57839 32.5823 9.61836Z" fill="#002D4C"/>
<path d="M25.9008 9.7517C25.848 9.82498 25.7754 9.86495 25.716 9.84497C25.6632 9.81832 25.6169 9.83164 25.6169 9.86495C25.6169 9.90492 25.6962 9.92491 25.8018 9.91158C25.9008 9.90492 26.0263 9.8916 26.0791 9.8916C26.1451 9.88494 26.1517 9.86495 26.1055 9.83164C26.0659 9.805 26.0197 9.74504 26.0065 9.69841C25.9867 9.64511 25.9537 9.65843 25.9008 9.7517Z" fill="#002D4C"/>
<path d="M26.5149 9.67161C26.4951 9.70492 26.5215 9.73157 26.5743 9.73157C26.6271 9.73157 26.6535 9.70492 26.6337 9.67161C26.6139 9.64496 26.5875 9.61832 26.5743 9.61832C26.5611 9.61832 26.5347 9.64496 26.5149 9.67161Z" fill="#002D4C"/>
<path d="M29.4332 9.6652C29.4794 9.68518 29.5388 9.67852 29.5586 9.65854C29.585 9.63855 29.5454 9.61857 29.4728 9.62523C29.4002 9.62523 29.3803 9.64521 29.4332 9.6652Z" fill="#002D4C"/>
<path d="M31.4863 9.73175C31.4071 9.83834 31.4071 9.845 31.4995 9.77172C31.559 9.72508 31.6316 9.71176 31.658 9.73841C31.691 9.76506 31.691 9.74507 31.6646 9.69844C31.6052 9.59185 31.592 9.59851 31.4863 9.73175Z" fill="#002D4C"/>
<path d="M25.4387 9.79843C25.4387 9.85838 25.4651 9.86505 25.5312 9.81175C25.5774 9.77178 25.617 9.73181 25.617 9.71849C25.617 9.71182 25.5774 9.70516 25.5312 9.70516C25.4783 9.70516 25.4387 9.74513 25.4387 9.79843Z" fill="#002D4C"/>
<path d="M27.3994 9.76482C27.3994 9.79147 27.4258 9.81812 27.4588 9.81812C27.4984 9.81812 27.5381 9.79147 27.5579 9.76482C27.5777 9.73151 27.5513 9.70487 27.4984 9.70487C27.4456 9.70487 27.3994 9.73151 27.3994 9.76482Z" fill="#002D4C"/>
<path d="M24.5475 9.85159C24.5145 9.89156 24.8446 10.4578 24.9568 10.5511C24.9766 10.5711 25.0625 10.6976 25.1483 10.8309C25.3199 11.1173 25.3464 11.1373 25.3331 10.9575C25.3331 10.8842 25.3067 10.8375 25.2803 10.8575C25.2539 10.8709 25.2143 10.8575 25.1879 10.8176C25.1681 10.7842 25.1813 10.7509 25.2275 10.7509C25.2671 10.7509 25.2275 10.6777 25.1285 10.5844C25.036 10.4978 24.9568 10.3845 24.9568 10.3379C24.9568 10.2913 24.8974 10.2113 24.8248 10.1647C24.7455 10.1181 24.6663 10.0181 24.6399 9.94486C24.6135 9.87157 24.5673 9.8316 24.5475 9.85159Z" fill="#002D4C"/>
<path d="M26.7524 9.99818C26.7458 10.1181 26.759 10.1514 26.792 10.0981C26.825 10.0448 26.8976 10.0315 26.9703 10.0581C27.0759 10.0981 27.0693 10.0848 26.9505 9.96487C26.7656 9.77834 26.7722 9.77834 26.7524 9.99818Z" fill="#002D4C"/>
<path d="M27.6833 9.91834C27.6833 9.97163 27.6966 10.0049 27.7164 9.98496C27.7362 9.97163 27.8022 9.98496 27.8682 10.0183C27.9474 10.0649 28.0003 10.0649 28.0267 10.0183C28.0465 9.98496 28.0135 9.95165 27.9474 9.95165C27.8748 9.95165 27.789 9.91834 27.756 9.88503C27.7098 9.8384 27.6833 9.84506 27.6833 9.91834Z" fill="#002D4C"/>
<path d="M24.6926 9.91149C24.6926 9.92482 24.7388 9.97145 24.7917 10.0181C24.8511 10.0647 24.8907 10.0714 24.8907 10.0314C24.8907 9.9981 24.8445 9.95147 24.7917 9.92482C24.7388 9.90483 24.6926 9.89817 24.6926 9.91149Z" fill="#002D4C"/>
<path d="M27.3006 9.95825C27.2742 9.99822 27.2676 10.0382 27.2874 10.0582C27.3006 10.0782 27.3336 10.0449 27.3534 9.9849C27.3996 9.87165 27.36 9.85166 27.3006 9.95825Z" fill="#002D4C"/>
<path d="M25.2671 10.0249C25.2076 10.0582 25.1152 10.0716 25.069 10.0449C25.0096 10.0049 25.0162 10.0249 25.0756 10.0982C25.1548 10.1981 25.1746 10.1981 25.2935 10.0982C25.4783 9.93832 25.4651 9.90501 25.2671 10.0249Z" fill="#002D4C"/>
<path d="M31.1101 10.0115C31.0375 10.0515 31.0441 10.0781 31.1365 10.1114C31.1959 10.1314 31.262 10.1381 31.2818 10.1181C31.3016 10.0981 31.2818 10.0848 31.2355 10.0848C31.1893 10.0848 31.1761 10.0515 31.1959 10.0182C31.2421 9.93821 31.2223 9.93821 31.1101 10.0115Z" fill="#002D4C"/>
<path d="M29.0239 10.0981C29.0437 10.1247 29.0833 10.1514 29.1229 10.1514C29.156 10.1514 29.1824 10.1247 29.1824 10.0981C29.1824 10.0648 29.1361 10.0381 29.0833 10.0381C29.0305 10.0381 29.0041 10.0648 29.0239 10.0981Z" fill="#002D4C"/>
<path d="M27.4194 10.1913C27.4194 10.238 27.4987 10.3046 27.5911 10.3446C27.7495 10.4112 27.7495 10.4112 27.6373 10.3246C27.5713 10.2713 27.5317 10.198 27.5581 10.1647C27.5779 10.1314 27.5515 10.1047 27.5053 10.1047C27.459 10.1047 27.4194 10.1447 27.4194 10.1913Z" fill="#002D4C"/>
<path d="M25.3064 10.2378C25.3064 10.2911 25.346 10.3311 25.3922 10.3311C25.4384 10.3311 25.4913 10.2911 25.5111 10.2378C25.5309 10.1845 25.4979 10.1512 25.4252 10.1512C25.3592 10.1512 25.3064 10.1912 25.3064 10.2378Z" fill="#002D4C"/>
<path d="M25.7157 10.2846C25.795 10.3712 25.795 10.4112 25.7289 10.4844C25.6893 10.5377 25.7289 10.5178 25.8214 10.4311C25.9138 10.3512 26.0062 10.2979 26.026 10.3179C26.0459 10.3379 26.0987 10.2979 26.1515 10.238C26.2373 10.1314 26.2307 10.1247 26.1317 10.2113C26.0327 10.2846 26.0128 10.2846 26.0128 10.2113C26.0128 10.158 25.9732 10.1713 25.9072 10.2579C25.828 10.3579 25.8082 10.3645 25.8412 10.2713C25.861 10.1913 25.8346 10.1647 25.7488 10.1713C25.6365 10.178 25.6299 10.1913 25.7157 10.2846Z" fill="#002D4C"/>
<path d="M26.2773 10.178C26.2773 10.1913 26.3236 10.238 26.3764 10.2846C26.4556 10.3512 26.4754 10.3512 26.4754 10.2579C26.4754 10.198 26.4292 10.1514 26.3764 10.1514C26.3236 10.1514 26.2773 10.1647 26.2773 10.178Z" fill="#002D4C"/>
<path d="M26.9239 10.198C26.9701 10.218 27.0295 10.2113 27.0493 10.1914C27.0757 10.1714 27.0361 10.1514 26.9635 10.158C26.8909 10.158 26.8711 10.178 26.9239 10.198Z" fill="#002D4C"/>
<path d="M25.0227 10.2444C25.0227 10.2578 25.0755 10.3111 25.1415 10.3577C25.2406 10.4443 25.2472 10.4376 25.1614 10.3311C25.0755 10.2245 25.0227 10.1912 25.0227 10.2444Z" fill="#002D4C"/>
<path d="M29.3801 10.4779C29.3801 10.5445 29.5056 10.6444 29.5452 10.6111C29.5518 10.5978 29.5254 10.5445 29.4726 10.4979C29.4197 10.4513 29.3801 10.4446 29.3801 10.4779Z" fill="#002D4C"/>
<path d="M27.9275 10.5511C27.9803 10.5844 28.0595 10.6178 28.0925 10.6178C28.1321 10.6178 28.1123 10.5844 28.0595 10.5511C28.0067 10.5178 27.9341 10.4845 27.8945 10.4845C27.8615 10.4845 27.8747 10.5178 27.9275 10.5511Z" fill="#002D4C"/>
<path d="M32.0213 10.5578C32.0213 10.5911 32.0544 10.6044 32.0874 10.5844C32.127 10.5644 32.1534 10.5644 32.1534 10.5978C32.1468 10.671 31.6252 11.3972 31.6252 11.3239C31.6252 11.2906 31.5856 11.3039 31.5328 11.3505C31.48 11.3905 31.4469 11.4638 31.4667 11.5038C31.48 11.5504 31.4205 11.6703 31.3281 11.7769C31.2357 11.8835 31.163 11.9967 31.163 12.0301C31.163 12.0634 31.13 12.07 31.0838 12.0434C31.0376 12.0167 31.031 12.0234 31.0574 12.0767C31.0838 12.1167 31.0706 12.2099 31.0178 12.2699C30.9452 12.3698 30.9452 12.3698 31.0376 12.3032C31.0904 12.2566 31.2885 12.0034 31.4667 11.7369C31.645 11.4705 31.9025 11.1041 32.0345 10.9242C32.2128 10.6844 32.259 10.5778 32.1996 10.5378C32.0874 10.4645 32.0213 10.4712 32.0213 10.5578Z" fill="#002D4C"/>
<path d="M25.8152 10.6843C25.8152 10.7176 25.8482 10.7509 25.8878 10.7509C25.9208 10.7509 25.934 10.7176 25.9142 10.6843C25.8944 10.6443 25.8614 10.6177 25.8416 10.6177C25.8284 10.6177 25.8152 10.6443 25.8152 10.6843Z" fill="#002D4C"/>
<path d="M26.112 10.6842C26.0592 10.7708 26.1318 10.884 26.2308 10.884C26.277 10.884 26.2704 10.8574 26.211 10.8174C26.1252 10.7575 26.1252 10.7441 26.211 10.6842C26.2704 10.6442 26.277 10.6176 26.2308 10.6176C26.1912 10.6176 26.1318 10.6442 26.112 10.6842Z" fill="#002D4C"/>
<path d="M26.6072 10.8108C26.6072 10.8774 26.6534 10.9707 26.7062 11.0173C26.792 11.0906 26.792 11.0706 26.7326 10.8907C26.6534 10.6576 26.6072 10.6243 26.6072 10.8108Z" fill="#002D4C"/>
<path d="M28.0598 10.7443C28.0598 10.7843 28.0862 10.8309 28.1258 10.8509C28.1655 10.8709 28.1721 10.8443 28.1522 10.791C28.106 10.6711 28.0598 10.6511 28.0598 10.7443Z" fill="#002D4C"/>
<path d="M31.625 10.7576C31.625 10.7909 31.658 10.8042 31.691 10.7842C31.7306 10.7642 31.757 10.7309 31.757 10.7109C31.757 10.6976 31.7306 10.6843 31.691 10.6843C31.658 10.6843 31.625 10.7176 31.625 10.7576Z" fill="#002D4C"/>
<path d="M30.3374 10.8841C30.3176 10.9174 30.3308 10.9507 30.3638 10.9507C30.4035 10.9507 30.4365 10.9174 30.4365 10.8841C30.4365 10.8441 30.4233 10.8175 30.4101 10.8175C30.3902 10.8175 30.3572 10.8441 30.3374 10.8841Z" fill="#002D4C"/>
<path d="M25.6829 10.9509C25.6829 10.9909 25.7291 11.0375 25.7819 11.0575C25.8347 11.0841 25.8611 11.1241 25.8413 11.1574C25.8215 11.1907 25.7687 11.1974 25.7291 11.1707C25.6829 11.1441 25.6895 11.1774 25.7423 11.244C25.8083 11.324 25.8479 11.3373 25.8809 11.2773C25.9073 11.2373 25.9668 11.224 26.0064 11.244C26.1384 11.3306 26.079 11.244 25.8809 11.0641C25.7753 10.9642 25.6829 10.9176 25.6829 10.9509Z" fill="#002D4C"/>
<path d="M28.0993 11.0308C28.1192 11.0575 28.1588 11.0841 28.1984 11.0841C28.2314 11.0841 28.2578 11.0575 28.2578 11.0308C28.2578 10.9975 28.2116 10.9709 28.1588 10.9709C28.106 10.9709 28.0795 10.9975 28.0993 11.0308Z" fill="#002D4C"/>
<path d="M28.5946 11.124C28.5946 11.1973 28.6144 11.2173 28.6342 11.164C28.654 11.1174 28.6474 11.0574 28.6276 11.0374C28.6078 11.0108 28.588 11.0508 28.5946 11.124Z" fill="#002D4C"/>
<path d="M26.6335 11.204C26.6599 11.2506 26.6401 11.2839 26.5807 11.2839C26.5279 11.2839 26.4685 11.3106 26.4487 11.3439C26.4223 11.3772 26.4685 11.3905 26.5411 11.3705C26.7128 11.3239 26.7656 11.2439 26.6665 11.1773C26.6137 11.1507 26.6071 11.1573 26.6335 11.204Z" fill="#002D4C"/>
<path d="M28.3899 11.3172C28.3899 11.3705 28.4031 11.4171 28.4163 11.4171C28.4295 11.4171 28.4559 11.3705 28.4823 11.3172C28.5021 11.2639 28.4889 11.2173 28.4559 11.2173C28.4163 11.2173 28.3899 11.2639 28.3899 11.3172Z" fill="#002D4C"/>
<path d="M29.6244 11.3504C29.6442 11.4237 29.6838 11.497 29.7103 11.5169C29.7433 11.5369 29.7499 11.4903 29.7301 11.417C29.7103 11.3437 29.6706 11.2705 29.6442 11.2505C29.6112 11.2305 29.6046 11.2771 29.6244 11.3504Z" fill="#002D4C"/>
<path d="M30.126 11.3172C30.126 11.3705 30.1524 11.3971 30.1854 11.3771C30.2184 11.3571 30.225 11.3105 30.2052 11.2772C30.1458 11.1906 30.126 11.2039 30.126 11.3172Z" fill="#002D4C"/>
<path d="M27.3797 11.3305C27.3533 11.3505 27.3335 11.4038 27.3335 11.4438C27.3335 11.4838 27.3665 11.4771 27.4127 11.4305C27.4523 11.3905 27.4721 11.3372 27.4589 11.3172C27.4391 11.2972 27.3995 11.3039 27.3797 11.3305Z" fill="#002D4C"/>
<path d="M27.1353 11.5104C27.1353 11.5703 27.1683 11.617 27.2013 11.617C27.2409 11.617 27.2673 11.5903 27.2673 11.557C27.2673 11.517 27.2409 11.4704 27.2013 11.4504C27.1683 11.4304 27.1353 11.4571 27.1353 11.5104Z" fill="#002D4C"/>
<path d="M27.8353 11.5305C27.7957 11.6237 27.8023 11.6304 27.8683 11.5704C27.9145 11.5238 27.9343 11.4705 27.9145 11.4505C27.8947 11.4305 27.8551 11.4638 27.8353 11.5305Z" fill="#002D4C"/>
<path d="M28.984 11.6836C29.0236 11.7568 29.0698 11.8168 29.0897 11.8168C29.1029 11.8168 29.0897 11.7568 29.05 11.6836C29.0104 11.6103 28.9642 11.5503 28.9444 11.5503C28.9312 11.5503 28.9444 11.6103 28.984 11.6836Z" fill="#002D4C"/>
<path d="M29.4857 11.6368C29.5055 11.7035 29.5451 11.7368 29.5649 11.7168C29.5847 11.6968 29.5649 11.6435 29.5187 11.5969C29.4527 11.5369 29.4461 11.5436 29.4857 11.6368Z" fill="#002D4C"/>
<path d="M26.5415 11.7902C26.5415 11.8435 26.5745 11.8701 26.6075 11.8501C26.6471 11.8235 26.6603 11.7769 26.6405 11.7435C26.5811 11.6503 26.5415 11.6703 26.5415 11.7902Z" fill="#002D4C"/>
<path d="M27.1089 11.7635C27.1287 11.7968 27.1749 11.8035 27.2079 11.7835C27.2937 11.7236 27.2805 11.7036 27.1683 11.7036C27.1155 11.7036 27.0891 11.7302 27.1089 11.7635Z" fill="#002D4C"/>
<path d="M30.126 11.7635C30.027 11.8967 29.9609 12.0166 29.9939 12.0166C30.0137 12.0166 30.0732 11.9434 30.1326 11.8501C30.2448 11.6769 30.2382 11.6169 30.126 11.7635Z" fill="#002D4C"/>
<path d="M27.3271 11.7968C27.2809 12.0566 27.2941 12.1365 27.3733 12.1032C27.4262 12.0832 27.4658 12.0433 27.4658 12.0033C27.4658 11.97 27.4988 11.9633 27.545 11.99C27.5912 12.0166 27.5978 12.0099 27.5714 11.9567C27.5318 11.8967 27.4988 11.8967 27.4262 11.9567C27.3139 12.0499 27.3007 11.9433 27.4129 11.8301C27.4724 11.7701 27.4724 11.7501 27.4129 11.7501C27.3667 11.7501 27.3271 11.7701 27.3271 11.7968Z" fill="#002D4C"/>
<path d="M27.9607 11.8166C27.9805 11.8499 28.0135 11.8832 28.0333 11.8832C28.0466 11.8832 28.0598 11.8499 28.0598 11.8166C28.0598 11.7766 28.0267 11.75 27.9871 11.75C27.9541 11.75 27.9409 11.7766 27.9607 11.8166Z" fill="#002D4C"/>
<path d="M29.5716 11.9634C29.5716 12.01 29.5584 12.1033 29.5452 12.1699C29.532 12.2432 29.5386 12.2765 29.565 12.2565C29.6178 12.1966 29.6574 11.8835 29.6112 11.8835C29.5914 11.8835 29.5782 11.9234 29.5716 11.9634Z" fill="#002D4C"/>
<path d="M27.8882 12.0966C27.908 12.1965 28.0599 12.2498 28.0599 12.1499C28.0599 12.1099 28.0335 12.0899 28.0005 12.1099C27.9674 12.1365 27.9212 12.1165 27.908 12.0832C27.8882 12.0433 27.8816 12.0499 27.8882 12.0966Z" fill="#002D4C"/>
<path d="M26.7063 12.1499C26.7261 12.1832 26.7591 12.2165 26.779 12.2165C26.7922 12.2165 26.8054 12.1832 26.8054 12.1499C26.8054 12.1099 26.7724 12.0832 26.7327 12.0832C26.6997 12.0832 26.6865 12.1099 26.7063 12.1499Z" fill="#002D4C"/>
<path d="M28.3567 12.1497C28.3831 12.1897 28.4293 12.203 28.4623 12.183C28.5547 12.1231 28.5349 12.0831 28.4161 12.0831C28.3633 12.0831 28.3369 12.1164 28.3567 12.1497Z" fill="#002D4C"/>
<path d="M26.9109 12.2764C26.8911 12.3097 26.9175 12.3497 26.9703 12.3763C27.0297 12.3963 27.0693 12.3763 27.0693 12.3163C27.0693 12.2098 26.9637 12.1831 26.9109 12.2764Z" fill="#002D4C"/>
<path d="M28.4757 12.2633C28.3503 12.3099 28.3701 12.3899 28.5154 12.3899C28.588 12.3899 28.6276 12.3566 28.6078 12.3033C28.588 12.2566 28.5682 12.2167 28.5616 12.2233C28.5616 12.2233 28.5154 12.2433 28.4757 12.2633Z" fill="#002D4C"/>
<path d="M27.1353 12.3497C27.1353 12.383 27.1683 12.4163 27.2013 12.4163C27.2409 12.4163 27.2673 12.383 27.2673 12.3497C27.2673 12.3097 27.2409 12.2831 27.2013 12.2831C27.1683 12.2831 27.1353 12.3097 27.1353 12.3497Z" fill="#002D4C"/>
<path d="M27.4459 12.3565C27.4922 12.4031 27.545 12.4231 27.5648 12.4031C27.5846 12.3831 27.5516 12.3431 27.4855 12.3232C27.3931 12.2832 27.3865 12.2898 27.4459 12.3565Z" fill="#002D4C"/>
<path d="M29.5914 12.4163C29.4923 12.5829 29.4923 12.6362 29.5914 12.6029C29.631 12.5896 29.6772 12.5096 29.6904 12.4297C29.7168 12.2498 29.697 12.2498 29.5914 12.4163Z" fill="#002D4C"/>
<path d="M29.1954 12.523C29.3011 12.6296 29.3011 12.6495 29.1954 12.8094C29.136 12.9027 29.1162 12.956 29.1624 12.9293C29.202 12.9027 29.2483 12.916 29.2615 12.956C29.2747 13.0026 29.3209 12.9893 29.3737 12.9227C29.4529 12.8294 29.4529 12.8161 29.3539 12.8561C29.2417 12.9027 29.202 12.7828 29.3143 12.7162C29.4001 12.6629 29.3275 12.503 29.1954 12.4497C29.0898 12.4097 29.0898 12.4164 29.1954 12.523Z" fill="#002D4C"/>
<path d="M27.3334 12.5764C27.3334 12.6297 27.2806 12.6896 27.2211 12.7029C27.1089 12.7296 27.1089 12.7363 27.2211 12.7429C27.2938 12.7496 27.3202 12.7829 27.2938 12.8295C27.2674 12.8762 27.274 12.8828 27.3202 12.8562C27.3664 12.8295 27.3994 12.8562 27.406 12.9294C27.406 13.0027 27.4258 13.0161 27.4456 12.9628C27.4588 12.9228 27.505 12.8961 27.5381 12.9161C27.5711 12.9428 27.5777 12.9095 27.5579 12.8562C27.5381 12.7962 27.4918 12.7629 27.4654 12.7696C27.439 12.7762 27.4126 12.7496 27.406 12.7163C27.3994 12.6763 27.4324 12.643 27.4654 12.643C27.6173 12.623 27.6239 12.6097 27.5314 12.5497C27.3928 12.4565 27.3334 12.4698 27.3334 12.5764Z" fill="#002D4C"/>
<path d="M30.7996 12.5495C30.7798 12.5829 30.793 12.6162 30.826 12.6162C30.8656 12.6162 30.8986 12.5829 30.8986 12.5495C30.8986 12.5096 30.8854 12.4829 30.8722 12.4829C30.8524 12.4829 30.8194 12.5096 30.7996 12.5495Z" fill="#002D4C"/>
<path d="M27.8948 12.623C27.8287 12.7229 27.9146 12.7896 28.0004 12.703C28.0466 12.6563 28.0466 12.6164 28.007 12.5897C27.9674 12.5697 27.9146 12.583 27.8948 12.623Z" fill="#002D4C"/>
<path d="M26.7131 12.6695C26.6933 12.7028 26.7197 12.7295 26.7725 12.7295C26.8254 12.7295 26.8518 12.7028 26.832 12.6695C26.8122 12.6429 26.7857 12.6162 26.7725 12.6162C26.7593 12.6162 26.7329 12.6429 26.7131 12.6695Z" fill="#002D4C"/>
<path d="M30.5685 12.8626C30.4761 12.9559 30.4431 13.0225 30.4959 13.0092C30.5817 12.9759 30.8194 12.6828 30.76 12.6828C30.7468 12.6828 30.661 12.7627 30.5685 12.8626Z" fill="#002D4C"/>
<path d="M27.6966 12.8161C27.8749 12.8961 27.9805 12.8961 27.8616 12.8161C27.8088 12.7828 27.7164 12.7562 27.6636 12.7562C27.5976 12.7562 27.6108 12.7762 27.6966 12.8161Z" fill="#002D4C"/>
<path d="M28.5218 12.8161C28.4492 12.8627 28.4492 12.8827 28.5086 12.8827C28.5614 12.8827 28.5746 12.916 28.5482 12.9626C28.5218 13.0093 28.5284 13.0226 28.5548 12.9959C28.601 12.956 28.6671 12.7494 28.6341 12.7494C28.6275 12.7494 28.5746 12.7827 28.5218 12.8161Z" fill="#002D4C"/>
<path d="M28.0134 12.9294C28.0134 12.9894 28.0398 12.9961 28.1059 12.9428C28.1521 12.9028 28.1917 12.8628 28.1917 12.8495C28.1917 12.8428 28.1521 12.8362 28.1059 12.8362C28.053 12.8362 28.0134 12.8762 28.0134 12.9294Z" fill="#002D4C"/>
<path d="M28.918 12.8894C28.918 12.9227 28.951 12.936 28.984 12.916C29.0236 12.8961 29.05 12.8628 29.05 12.8428C29.05 12.8294 29.0236 12.8161 28.984 12.8161C28.951 12.8161 28.918 12.8494 28.918 12.8894Z" fill="#002D4C"/>
<path d="M29.5122 12.8495C29.5122 12.8961 29.7103 12.9361 29.7367 12.8961C29.7565 12.8694 29.7103 12.8361 29.6377 12.8361C29.5716 12.8295 29.5122 12.8361 29.5122 12.8495Z" fill="#002D4C"/>
<path d="M27.1089 12.936C27.0891 12.9694 27.1155 12.996 27.1683 12.996C27.2211 12.996 27.2475 12.9694 27.2277 12.936C27.2079 12.9094 27.1815 12.8827 27.1683 12.8827C27.1551 12.8827 27.1287 12.9094 27.1089 12.936Z" fill="#002D4C"/>
<path d="M28.2116 13.096C28.2248 13.176 28.1852 13.176 27.9145 13.1027C27.7363 13.0494 27.7759 13.1826 27.9607 13.2692C28.0862 13.3292 28.139 13.3225 28.2248 13.2426C28.3371 13.1227 28.3569 13.0161 28.2578 13.0161C28.2248 13.0161 28.1984 13.0561 28.2116 13.096Z" fill="#002D4C"/>
<path d="M28.8519 13.1492C28.9377 13.3091 28.9641 13.3158 28.9641 13.1826C28.9641 13.1293 28.9245 13.076 28.8717 13.056C28.7991 13.0293 28.7991 13.0493 28.8519 13.1492Z" fill="#002D4C"/>
<path d="M27.2673 13.1425C27.2673 13.1825 27.2937 13.2224 27.3202 13.2424C27.3532 13.2624 27.3796 13.2357 27.3796 13.1825C27.3796 13.1292 27.3532 13.0825 27.3202 13.0825C27.2937 13.0825 27.2673 13.1092 27.2673 13.1425Z" fill="#002D4C"/>
<path d="M28.3701 13.1757C28.3437 13.2424 28.3635 13.2623 28.4229 13.2357C28.4758 13.2157 28.5022 13.1757 28.4824 13.1424C28.4361 13.0625 28.4097 13.0691 28.3701 13.1757Z" fill="#002D4C"/>
<path d="M29.4527 13.1425C29.3999 13.1758 29.3933 13.2158 29.4329 13.2424C29.4659 13.2624 29.5122 13.2357 29.5386 13.1825C29.5782 13.0692 29.5782 13.0625 29.4527 13.1425Z" fill="#002D4C"/>
<path d="M30.3441 13.1892C30.3111 13.2824 30.3177 13.2891 30.4035 13.2158C30.5158 13.1226 30.529 13.0826 30.4431 13.0826C30.4101 13.0826 30.3639 13.1292 30.3441 13.1892Z" fill="#002D4C"/>
<path d="M28.6604 13.2293C28.7198 13.2759 28.7528 13.3559 28.7396 13.3958C28.7198 13.4425 28.7396 13.4824 28.7858 13.4824C28.8254 13.4824 28.8387 13.5158 28.8122 13.5624C28.7858 13.609 28.7924 13.6157 28.8453 13.589C28.8981 13.5491 28.9047 13.5091 28.8585 13.4558C28.8188 13.4092 28.8056 13.3559 28.8254 13.3292C28.8453 13.3092 28.7924 13.2626 28.7066 13.216C28.5812 13.156 28.5746 13.156 28.6604 13.2293Z" fill="#002D4C"/>
<path d="M27.4789 13.3558C27.4327 13.4358 27.4063 13.5157 27.4261 13.5357C27.4459 13.5557 27.4657 13.529 27.4657 13.4757C27.4657 13.3958 27.4789 13.3958 27.5251 13.4757C27.5647 13.5357 27.5845 13.509 27.5845 13.3891C27.5845 13.1826 27.5845 13.1826 27.4789 13.3558Z" fill="#002D4C"/>
<path d="M29.5452 13.3558C29.5188 13.3958 29.5122 13.4358 29.532 13.4558C29.5452 13.4757 29.5782 13.4424 29.598 13.3825C29.6443 13.2692 29.6046 13.2492 29.5452 13.3558Z" fill="#002D4C"/>
<path d="M27.908 13.449C27.8683 13.549 27.8419 13.5556 27.8023 13.489C27.7627 13.4224 27.7363 13.429 27.7099 13.5156C27.6769 13.5889 27.6901 13.6089 27.7429 13.5756C27.7957 13.5423 27.8023 13.5689 27.7693 13.6489C27.7297 13.7621 27.7363 13.7688 27.8419 13.6689C27.908 13.6156 28.0136 13.5756 28.0796 13.5823C28.139 13.5956 28.1919 13.5623 28.1919 13.5156C28.1919 13.469 28.2315 13.4091 28.2777 13.3957C28.3305 13.3691 28.3371 13.3558 28.2777 13.3558C28.2381 13.3491 28.1588 13.3957 28.0994 13.449C28.0136 13.5356 28.0004 13.5356 27.9806 13.429C27.9608 13.3291 27.9542 13.3291 27.908 13.449Z" fill="#002D4C"/>
<path d="M28.4625 13.4888C28.5285 13.6154 28.4361 13.722 28.3238 13.6487C28.2908 13.6287 28.2578 13.6354 28.2578 13.6687C28.2578 13.7752 28.3436 13.8152 28.4295 13.7419C28.4823 13.6953 28.5219 13.6953 28.5549 13.7486C28.6077 13.8352 28.72 13.8352 28.72 13.7486C28.72 13.7086 28.6804 13.682 28.6341 13.682C28.5879 13.682 28.5483 13.622 28.5417 13.5487C28.5351 13.4755 28.5549 13.4288 28.5945 13.4488C28.6275 13.4755 28.6539 13.4621 28.6539 13.4222C28.6539 13.3889 28.5945 13.3622 28.5285 13.3689C28.4295 13.3755 28.4163 13.4022 28.4625 13.4888Z" fill="#002D4C"/>
<path d="M29.0499 13.549C28.9707 13.5956 28.9839 13.6089 29.0962 13.5956C29.1754 13.5956 29.2216 13.5623 29.2084 13.5356C29.1688 13.469 29.1688 13.469 29.0499 13.549Z" fill="#002D4C"/>
<path d="M29.961 13.882C29.7894 14.1218 29.4131 14.6547 29.1226 15.0678L28.601 15.8272L28.1124 15.1344C27.8483 14.7547 27.5842 14.3749 27.5314 14.295C27.439 14.1551 27.4324 14.215 27.4258 14.9945C27.4126 15.9604 27.2541 16.6533 26.8448 17.466C26.2968 18.5586 24.9433 20.0508 23.4776 21.1767C21.8732 22.4025 20.9423 23.1952 20.2029 23.9413C17.8459 26.3329 16.3933 29.1842 15.3106 33.5277C15.1323 34.2405 14.9871 34.8601 14.9871 34.9134C14.9871 34.9867 15.4624 35 17.6148 35H20.2359L20.4604 34.114C20.9423 32.2287 21.5563 30.5632 22.3222 29.0909C23.2399 27.3056 24.1246 26.0198 26.0525 23.6882C27.5512 21.8762 28.02 21.2433 28.5019 20.4305C29.1952 19.2314 29.7762 17.6925 30.0271 16.3468C30.1723 15.6074 30.3374 13.8953 30.2912 13.6155C30.2714 13.4623 30.2383 13.4889 29.961 13.882Z" fill="#002D4C"/>
<path d="M29.4463 13.6289C29.4463 13.6889 29.4925 13.7555 29.5519 13.7755C29.651 13.8155 29.651 13.8021 29.5717 13.7022C29.5255 13.6356 29.4727 13.569 29.4661 13.5556C29.4529 13.5423 29.4463 13.5756 29.4463 13.6289Z" fill="#002D4C"/>
<path d="M27.2344 13.6822C27.2542 13.7155 27.2872 13.7488 27.307 13.7488C27.3202 13.7488 27.3334 13.7155 27.3334 13.6822C27.3334 13.6422 27.3004 13.6155 27.2608 13.6155C27.2278 13.6155 27.2146 13.6422 27.2344 13.6822Z" fill="#002D4C"/>
<path d="M27.5512 13.7356C27.5776 13.9021 27.7294 14.102 27.7294 13.9621C27.7294 13.9154 27.6964 13.8821 27.6568 13.8821C27.6238 13.8821 27.604 13.8555 27.6238 13.8288C27.637 13.8022 27.6238 13.7356 27.5908 13.6823C27.5446 13.609 27.538 13.6157 27.5512 13.7356Z" fill="#002D4C"/>
<path d="M27.908 13.8154C27.8882 13.8887 27.9014 13.9486 27.9344 13.9486C27.9674 13.9486 27.9938 13.8953 28.0004 13.8287C28.0004 13.7621 28.0202 13.7488 28.04 13.7954C28.0532 13.842 28.0995 13.882 28.1391 13.882C28.1787 13.882 28.1787 13.842 28.1259 13.7821C28.0136 13.6488 27.9476 13.6555 27.908 13.8154Z" fill="#002D4C"/>
<path d="M28.8123 13.7555C28.7859 13.8021 28.7925 13.8221 28.8387 13.7888C28.8783 13.7688 28.9246 13.7755 28.951 13.8154C28.9708 13.8487 28.9576 13.8821 28.9114 13.8821C28.8453 13.8821 28.8453 13.902 28.9048 13.962C28.9576 14.0153 29.0038 14.022 29.05 13.9753C29.0962 13.9287 29.0764 13.8687 28.9906 13.7888C28.8982 13.7022 28.8519 13.6955 28.8123 13.7555Z" fill="#002D4C"/>
<path d="M29.6312 13.9288C29.6774 13.9488 29.7368 13.9422 29.7566 13.9222C29.783 13.9022 29.7434 13.8822 29.6708 13.8889C29.5981 13.8889 29.5783 13.9089 29.6312 13.9288Z" fill="#002D4C"/>
<path d="M28.7795 14.0284C28.8257 14.095 28.8521 14.1883 28.8323 14.2349C28.8125 14.2815 28.8521 14.3215 28.9181 14.3282C28.9842 14.3348 29.0502 14.2815 29.07 14.2083C29.0964 14.1217 29.07 14.0817 28.9908 14.0817C28.9314 14.0817 28.8389 14.0417 28.7861 13.9951C28.7069 13.9285 28.7069 13.9351 28.7795 14.0284Z" fill="#002D4C"/>
<path d="M27.8157 14.1219C27.8421 14.1486 27.8157 14.2018 27.7562 14.2485C27.6638 14.3151 27.6638 14.3351 27.776 14.4217C27.8817 14.5083 27.8883 14.5083 27.8025 14.395C27.7166 14.2818 27.7562 14.2418 27.9477 14.2751C28.0467 14.2885 27.9939 14.1619 27.8817 14.1219C27.8157 14.0953 27.7892 14.0953 27.8157 14.1219Z" fill="#002D4C"/>
<path d="M28.522 14.1816C28.4626 14.2483 28.4626 14.2816 28.5154 14.2816C28.654 14.2816 28.588 14.3882 28.4097 14.4614C28.2249 14.5347 28.2315 14.5347 28.4692 14.5281C28.7068 14.5147 28.7399 14.4548 28.654 14.2149C28.6408 14.195 28.6408 14.1617 28.6474 14.1283C28.6606 14.0551 28.6144 14.075 28.522 14.1816Z" fill="#002D4C"/>
<path d="M28.9511 14.5348C28.9709 14.6614 28.9511 14.6814 28.819 14.6614C28.7332 14.6547 28.6408 14.6214 28.6144 14.5948C28.588 14.5681 28.5285 14.6014 28.4823 14.6681C28.3437 14.8413 28.3767 14.8812 28.5615 14.7813C28.7398 14.6881 28.9445 14.7147 28.8785 14.8213C28.8586 14.8546 28.8124 14.8679 28.7794 14.8479C28.7464 14.8213 28.72 14.8346 28.72 14.8746C28.72 14.9812 28.9907 15.0345 29.0765 14.9479C29.1293 14.8812 29.1293 14.8546 29.0699 14.8346C29.0237 14.8146 28.9841 14.7747 28.9841 14.7413C28.9841 14.7147 29.0237 14.7014 29.0699 14.7214C29.1227 14.7413 29.1557 14.6947 29.1623 14.6014C29.1623 14.5148 29.1557 14.4882 29.1359 14.5348C29.1095 14.6014 29.0831 14.5881 29.0105 14.5015C28.9313 14.3883 28.9247 14.3949 28.9511 14.5348ZM29.0171 14.8812C29.0369 14.9146 29.0105 14.9479 28.9511 14.9479C28.8917 14.9479 28.8652 14.9146 28.8851 14.8812C28.9049 14.8413 28.9379 14.8146 28.9511 14.8146C28.9643 14.8146 28.9973 14.8413 29.0171 14.8812Z" fill="#002D4C"/>
<path d="M28.7729 16.4939L23.2247 8.64961H34.2844L28.7729 16.4939Z" fill="#FF6B00"/>
<path d="M34.9462 5.21785C34.9462 7.94487 31.9719 9.8754 28.8468 9.8754C25.7217 9.8754 22.6372 7.94487 22.6372 5.21785C22.6372 2.49084 25.7217 0 28.8468 0C31.9719 0 34.9462 2.49084 34.9462 5.21785Z" fill="#FF6B00"/>
<ellipse cx="28.8099" cy="6.05821" rx="2.82922" ry="2.69647" fill="white"/>
<path d="M24.9192 6.09467C24.9192 6.79092 25.6206 8.99994 24.9915 8.99994C23.8503 10.2606 22.9606 8.63468 22.6766 6.86378C22.5643 6.16339 22.4866 4.55251 23.1156 4.55251C23.7447 4.55251 24.9192 5.39841 24.9192 6.09467Z" fill="#FF6B00"/>
<path d="M24.9192 6.09467C24.9192 6.79092 25.6206 8.99994 24.9915 8.99994C23.8503 10.2606 22.9606 8.63468 22.6766 6.86378C22.5643 6.16339 22.4866 4.55251 23.1156 4.55251C23.7447 4.55251 24.9192 5.39841 24.9192 6.09467Z" fill="#FF6B00"/>
<path d="M32.4874 6.23482C32.4874 6.93108 30.6425 10.5058 31.2716 10.5058C32.4128 11.7665 34.064 9.24515 34.7621 7.63427C35.0122 7.05712 35.2076 4.34247 34.5785 4.34247C33.9494 4.34247 32.4874 5.53856 32.4874 6.23482Z" fill="#FF6B00"/>
<path d="M32.4874 6.23482C32.4874 6.93108 30.6425 10.5058 31.2716 10.5058C32.4128 11.7665 34.064 9.24515 34.7621 7.63427C35.0122 7.05712 35.2076 4.34247 34.5785 4.34247C33.9494 4.34247 32.4874 5.53856 32.4874 6.23482Z" fill="#FF6B00"/>
<rect x="14.6353" y="27.543" width="4.20498" height="1.72394" fill="#002D4C"/>
<path d="M19.0049 21.3689H23.9519V23.0929H19.0049V21.3689Z" fill="#002D4C"/>
<rect x="23.0862" y="17.4799" width="4.20498" height="1.72394" fill="#002D4C"/>
</svg>
